<?xml version="1.0" encoding="utf-8"?>
<!-- Generator: Adobe Illustrator 16.0.0, SVG Export Plug-In . SVG Version: 6.00 Build 0)  -->
<!DOCTYPE svg PUBLIC "-//W3C//DTD SVG 1.1//EN" "http://www.w3.org/Graphics/SVG/1.1/DTD/svg11.dtd">
<svg version="1.1" id="Layer_1" xmlns="http://www.w3.org/2000/svg" xmlns:xlink="http://www.w3.org/1999/xlink" x="0px" y="0px"
	 width="700px" height="332.891px" viewBox="0 0 700 332.891" enable-background="new 0 0 700 332.891" xml:space="preserve">
<polygon opacity="0.15" fill="#67308F" points="-68,-207.268 551.402,-190.431 699.106,211.223 112.835,331.771 "/>
<g>
	<path fill="#444444" d="M10.673,95.897c0-27.262,20.058-48.308,47.037-48.308c26.555,0,46.471,21.188,46.471,48.025
		c0,27.261-20.058,48.308-47.037,48.308C30.59,143.923,10.673,122.735,10.673,95.897z M95.989,95.897
		c0-22.883-15.82-40.963-38.562-40.963S18.866,72.873,18.866,95.615c0,22.882,15.82,40.962,38.562,40.962
		S95.989,118.639,95.989,95.897z"/>
	<path fill="#444444" d="M116.33,135.73h10.453v-90.4H116.33v-6.498h17.656v96.898h10.594v6.497h-28.25V135.73z"/>
	<path fill="#444444" d="M156.304,135.73h10.452V89.399h-10.452v-6.497h17.656v52.828h10.594v6.497h-28.25V135.73z M162.519,58.042
		c0-3.672,2.966-6.78,6.639-6.78c3.531,0,6.498,3.108,6.498,6.78c0,3.673-2.966,6.78-6.498,6.78
		C165.485,64.822,162.519,61.715,162.519,58.042z"/>
	<path fill="#444444" d="M195.996,89.399h-8.193v-6.497h26.273v6.497h-9.888l19.069,43.082l19.069-43.082h-10.312v-6.497h26.273
		v6.497h-8.193l-25.708,55.229h-2.684L195.996,89.399z"/>
	<path fill="#444444" d="M266.198,135.73h10.452V89.399h-10.452v-6.497h17.656v52.828h10.594v6.497h-28.25V135.73z M272.413,58.042
		c0-3.672,2.966-6.78,6.639-6.78c3.531,0,6.498,3.108,6.498,6.78c0,3.673-2.966,6.78-6.498,6.78
		C275.379,64.822,272.413,61.715,272.413,58.042z"/>
	<path fill="#444444" d="M304.9,126.125c0-10.735,9.605-17.938,22.459-17.938c6.497,0,15.255,2.118,18.08,3.39v-9.888
		c0-3.39-0.989-6.356-2.825-8.475c-2.684-2.967-7.204-4.944-13.56-4.944c-5.65,0-8.475,1.554-10.735,3.107
		c0.565,1.13,0.988,2.261,0.988,3.814c0,2.966-2.119,5.367-5.367,5.367c-3.39,0-5.509-2.543-5.509-5.65
		c0-6.639,8.051-13.136,21.47-13.136c8.051,0,14.266,2.401,18.08,6.497c2.966,3.107,4.378,7.204,4.378,11.724v35.737h9.888v6.497
		h-16.526v-8.052c-4.944,5.086-12.854,9.182-20.905,9.182C312.81,143.357,304.9,136.013,304.9,126.125z M345.439,127.255v-10.028
		c-4.803-1.554-11.441-2.967-17.798-2.967c-10.453,0-15.538,5.085-15.538,11.441s4.803,11.3,14.125,11.3
		C334.28,137.001,340.918,132.481,345.439,127.255z"/>
	<path fill="#444444" d="M407.446,96.462c0-29.098,22.318-48.872,46.472-48.872c18.646,0,34.183,12.006,34.183,23.165
		c0,4.52-3.107,8.051-7.345,8.051c-3.531,0-6.356-2.824-6.356-6.355c0-3.108,2.26-5.509,4.661-6.074
		c-2.542-4.803-11.724-11.583-25.143-11.583c-22.6,0-38.278,19.917-38.278,41.528c0,20.481,15.961,40.397,38.844,40.397
		c11.3,0,20.764-3.955,29.662-11.865l4.379,5.791c-9.464,9.04-22.176,13.278-34.041,13.278
		C425.809,143.923,407.446,120.334,407.446,96.462z"/>
	<path fill="#444444" d="M544.178,88.553c0,3.248-2.543,6.073-5.792,6.073c-3.107,0-5.509-2.26-6.355-4.803
		c-4.662,1.271-10.171,6.922-13.278,13.137v32.771h11.583v6.497h-28.674v-6.497h9.888V89.399h-9.888v-6.497h16.809v13.419
		c4.237-8.192,11.865-14.549,17.656-14.549C541.353,81.772,544.178,85.021,544.178,88.553z"/>
	<path fill="#444444" d="M562.257,135.447c-1.836-3.39-2.684-7.486-2.684-12.288v-33.76h-9.888v-6.497h17.092v39.268
		c0,3.673,0.706,6.639,1.836,8.898c1.978,3.814,5.509,5.509,10.876,5.509c8.476,0,15.538-5.649,21.471-12.147v-35.03h-9.888v-6.497
		h17.091v52.828h9.888v6.497h-16.809v-11.724c-5.509,7.062-14.549,12.854-22.883,12.854
		C570.167,143.357,565.083,140.392,562.257,135.447z"/>
	<path fill="#444444" d="M626.246,139.968l39.126-50.851h-29.945v11.865h-6.639v-18.08h48.449v2.26l-39.127,50.851h33.053v-11.865
		h6.639v18.08h-51.556V139.968z"/>
</g>
</svg>
