<?xml version="1.0" encoding="utf-8"?>
<!-- Generator: Adobe Illustrator 19.0.1, SVG Export Plug-In . SVG Version: 6.00 Build 0)  -->
<svg version="1.1" xmlns="http://www.w3.org/2000/svg" xmlns:xlink="http://www.w3.org/1999/xlink" x="0px" y="0px"
	 viewBox="0 0 80 80" style="enable-background:new 0 0 80 80;" xml:space="preserve">
<style type="text/css">
	.st0{fill:#67308F;}
	.st1{display:none;}
	.st2{display:inline;fill:none;stroke:#FCEE21;stroke-miterlimit:10;}
</style>
<g id="Layer_1">
	<path class="st0" d="M57.5,61.9c0.2,0.6,0.1,0.9-0.4,1.2c-1.4,1-3,1.5-4.6,1.9c-3.4,0.9-6.8,0.8-10.1-0.2c-5.2-1.6-8.8-6-9.3-11.5
		c-0.1-1-0.1-2-0.1-3c0-4.7,0-9.4,0-14.1V35h-6.3c0-2,0-4.9,0-7.3c0-0.2,0.2-0.5,0.4-0.5c6.1-2.4,9.1-7,10-13.3
		c0.1-1,0.1-0.9,1.2-0.9H45v13h11v9H45.5c0,0,0,0.6,0,0.9c0,4.9,0,9.8,0,14.7c0,0.5,0,1.1,0.2,1.6c0.5,2.3,2,3.8,4.4,3.7
		c1.7,0,3.3-0.3,5.1-0.5c0,0,0.1,0.2,0.2,0.3C56.1,57.7,56.8,59.8,57.5,61.9z"/>
	<path class="st0" d="M40,0C17.9,0,0,17.9,0,40c0,22.1,17.9,40,40,40s40-17.9,40-40C80,17.9,62.1,0,40,0z M60,63.3
		c-0.5,1.1-1.4,1.8-2.4,2.3c-2.1,1.2-4.4,1.7-6.7,2.2c-5.4,0.9-10.9,0.8-16.1-1c-6.7-2.3-10.7-7.9-10.7-15c0-4.5-0.1-8.9-0.1-13.4
		V38h-6c0-1,0-0.8,0-1c0-3.6,0-7.5,0-11.2c0-0.5,0.1-0.8,0.6-0.9c5.8-1.9,9-6.1,10-12c0.3-1.7,1.4-2.9,3.1-2.9H48v14h10v13H48v13.4
		c0,2.2,0,2.3,2.2,2.3c1.7,0,3.4,0,5.2,0c0.5,0,0.8,0.2,0.9,0.6c1.2,3,2.5,6.1,3.8,9.1C60.2,62.6,60.2,63.1,60,63.3z"/>
</g>
<g id="Layer_2" class="st1">
	<circle class="st2" cx="40" cy="40" r="31.3"/>
</g>
</svg>
