<?xml version="1.0" encoding="utf-8"?>
<!-- Generator: Adobe Illustrator 19.0.1, SVG Export Plug-In . SVG Version: 6.00 Build 0)  -->
<svg version="1.1" xmlns="http://www.w3.org/2000/svg" xmlns:xlink="http://www.w3.org/1999/xlink" x="0px" y="0px"
	 viewBox="0 0 80 80" style="enable-background:new 0 0 80 80;" xml:space="preserve">
<style type="text/css">
	.st0{fill:#67308F;}
	.st1{display:none;}
	.st2{display:inline;fill:none;stroke:#FCEE21;stroke-miterlimit:10;}
</style>
<g id="Layer_1">
	<path class="st0" d="M40,0C17.9,0,0,17.9,0,40c0,22.1,17.9,40,40,40s40-17.9,40-40C80,17.9,62.1,0,40,0z M28,63H18V32h10V63z
		 M23,28.2c-3,0-5.5-2.5-5.5-5.5c0-3,2.5-5.5,5.5-5.5c3,0,5.5,2.5,5.5,5.5C28.5,25.7,26,28.2,23,28.2z M63,63h-9V48
		c0-3.5-0.3-8.1-5.1-8.1c-4.9,0-5.9,3.9-5.9,7.8V63h-9V32h9v4.7c1.3-2.9,4.3-4.9,8.7-4.9c9.6,0,11.3,6.1,11.3,14.3V63z"/>
</g>
<g id="Layer_2" class="st1">
	<circle class="st2" cx="40" cy="40" r="31.3"/>
</g>
</svg>
