<?xml version="1.0" encoding="utf-8"?>
<!-- Generator: Adobe Illustrator 19.0.1, SVG Export Plug-In . SVG Version: 6.00 Build 0)  -->
<svg version="1.1" xmlns="http://www.w3.org/2000/svg" xmlns:xlink="http://www.w3.org/1999/xlink" x="0px" y="0px"
	 viewBox="0 0 80 80" style="enable-background:new 0 0 80 80;" xml:space="preserve">
<style type="text/css">
	.st0{fill:#67308F;}
	.st1{display:none;}
	.st2{display:inline;fill:none;stroke:#FCEE21;stroke-miterlimit:10;}
</style>
<g id="Layer_1">
	<path class="st0" d="M49,40c0,4.9-4,9-9,9s-9-4-9-9s4-9,9-9S49,35.1,49,40z"/>
	<path class="st0" d="M61.8,29.1c-0.1-2.6-0.5-4-0.9-5c-0.5-1.3-1.1-2.2-2-3.1c-0.9-0.9-1.8-1.5-3.1-2c-0.9-0.4-2.4-0.8-5-0.9
		C48,18,47.2,18,40,18s-8,0-10.8,0.2c-2.6,0.1-4,0.6-5,0.9c-1.3,0.5-2.1,1.1-3.1,2c-0.9,0.9-1.5,1.8-2,3.1c-0.4,0.9-0.8,2.4-0.9,5
		C18,32,18,32.8,18,40c0,7.2,0,8,0.2,10.8c0.1,2.6,0.5,4,0.9,5c0.5,1.3,1.1,2.2,2,3.1s1.8,1.5,3.1,2c0.9,0.4,2.4,0.8,5,0.9
		C32,62,32.8,62,40,62s8,0,10.8-0.2c2.6-0.1,4-0.5,5-0.9c1.3-0.5,2.1-1.1,3.1-2s1.5-1.8,2-3.1c0.4-0.9,0.8-2.4,0.9-5
		C62,48,62,47.2,62,40C62,32.8,62,32,61.8,29.1z M40,53.8c-7.6,0-13.8-6.2-13.8-13.8S32.4,26.2,40,26.2c7.6,0,13.8,6.2,13.8,13.8
		S47.6,53.8,40,53.8z M54.3,28.9c-1.8,0-3.2-1.4-3.2-3.2c0-1.8,1.4-3.2,3.2-3.2c1.8,0,3.2,1.4,3.2,3.2
		C57.5,27.5,56.1,28.9,54.3,28.9z"/>
	<path class="st0" d="M40,0C17.9,0,0,17.9,0,40c0,22.1,17.9,40,40,40s40-17.9,40-40C80,17.9,62.1,0,40,0z M66.7,51.1
		c-0.1,2.9-0.6,4.8-1.2,6.5c-0.7,1.8-1.6,3.3-3.1,4.8c-1.5,1.5-3,2.4-4.8,3.1c-1.7,0.7-3.7,1.1-6.5,1.2s-3.8,0.2-11.1,0.2
		s-8.2,0-11.1-0.2s-4.8-0.6-6.5-1.2c-1.8-0.7-3.3-1.6-4.8-3.1c-1.5-1.5-2.4-3-3.1-4.8c-0.7-1.7-1.1-3.7-1.2-6.5
		c-0.1-2.9-0.2-3.8-0.2-11.1c0-7.3,0-8.2,0.2-11.1s0.6-4.8,1.2-6.5c0.7-1.8,1.6-3.3,3.1-4.8c1.5-1.5,3-2.4,4.8-3.1
		c1.7-0.7,3.7-1.1,6.5-1.2s3.8-0.2,11.1-0.2s8.2,0,11.1,0.2s4.8,0.6,6.5,1.2c1.8,0.7,3.3,1.6,4.8,3.1c1.5,1.5,2.4,3,3.1,4.8
		c0.7,1.7,1.1,3.7,1.2,6.5s0.2,3.8,0.2,11.1C66.8,47.3,66.8,48.2,66.7,51.1z"/>
</g>
<g id="Layer_2" class="st1">
	<circle class="st2" cx="40" cy="40" r="31.3"/>
</g>
</svg>
