<?xml version="1.0" encoding="utf-8"?>
<!-- Generator: Adobe Illustrator 19.0.1, SVG Export Plug-In . SVG Version: 6.00 Build 0)  -->
<svg version="1.1" xmlns="http://www.w3.org/2000/svg" xmlns:xlink="http://www.w3.org/1999/xlink" x="0px" y="0px"
	 viewBox="0 0 80 80" style="enable-background:new 0 0 80 80;" xml:space="preserve">
<style type="text/css">
	.st0{fill:#67308F;}
	.st1{display:none;}
	.st2{display:inline;fill:none;stroke:#FCEE21;stroke-miterlimit:10;}
</style>
<g id="Layer_1">
	<path class="st0" d="M32.3,32.2c0,1.5-0.4,2.4-1.3,3c-0.9,0.6-2,0.8-3.4,0.8H20v-8h7.1c0.7,0,1.3,0.2,2,0.3
		c0.6,0.1,1.2,0.4,1.7,0.7c0.5,0.3,0.9,0.7,1.2,1.2C32.2,30.7,32.3,31.4,32.3,32.2z"/>
	<path class="st0" d="M33.7,46.6c0,0.9-0.2,1.6-0.5,2.2c-0.3,0.6-0.7,1-1.2,1.3c-0.5,0.4-1.1,0.5-1.8,0.7C29.5,51,28.8,51,28.1,51
		H20v-9h8.2c1.6,0,3,0.1,4,0.9C33.2,43.7,33.7,44.8,33.7,46.6z"/>
	<path class="st0" d="M60.1,37.9c-0.8-0.9-2.2-1.5-3.9-1.5c-1.1,0-2,0.2-2.7,0.6c-0.7,0.4-1.3,0.9-1.7,1.4c-0.5,0.6-0.8,1.2-0.9,1.8
		c-0.2,0.6-0.3,0.8-0.3,1.8h11.2C61.5,40,60.9,38.8,60.1,37.9z M60.1,37.9c-0.8-0.9-2.2-1.5-3.9-1.5c-1.1,0-2,0.2-2.7,0.6
		c-0.7,0.4-1.3,0.9-1.7,1.4c-0.5,0.6-0.8,1.2-0.9,1.8c-0.2,0.6-0.3,0.8-0.3,1.8h11.2C61.5,40,60.9,38.8,60.1,37.9z M60.1,37.9
		c-0.8-0.9-2.2-1.5-3.9-1.5c-1.1,0-2,0.2-2.7,0.6c-0.7,0.4-1.3,0.9-1.7,1.4c-0.5,0.6-0.8,1.2-0.9,1.8c-0.2,0.6-0.3,0.8-0.3,1.8h11.2
		C61.5,40,60.9,38.8,60.1,37.9z M60.1,37.9c-0.8-0.9-2.2-1.5-3.9-1.5c-1.1,0-2,0.2-2.7,0.6c-0.7,0.4-1.3,0.9-1.7,1.4
		c-0.5,0.6-0.8,1.2-0.9,1.8c-0.2,0.6-0.3,0.8-0.3,1.8h11.2C61.5,40,60.9,38.8,60.1,37.9z M60.1,37.9c-0.8-0.9-2.2-1.5-3.9-1.5
		c-1.1,0-2,0.2-2.7,0.6c-0.7,0.4-1.3,0.9-1.7,1.4c-0.5,0.6-0.8,1.2-0.9,1.8c-0.2,0.6-0.3,0.8-0.3,1.8h11.2
		C61.5,40,60.9,38.8,60.1,37.9z M60.1,37.9c-0.8-0.9-2.2-1.5-3.9-1.5c-1.1,0-2,0.2-2.7,0.6c-0.7,0.4-1.3,0.9-1.7,1.4
		c-0.5,0.6-0.8,1.2-0.9,1.8c-0.2,0.6-0.3,0.8-0.3,1.8h11.2C61.5,40,60.9,38.8,60.1,37.9z M60.1,37.9c-0.8-0.9-2.2-1.5-3.9-1.5
		c-1.1,0-2,0.2-2.7,0.6c-0.7,0.4-1.3,0.9-1.7,1.4c-0.5,0.6-0.8,1.2-0.9,1.8c-0.2,0.6-0.3,0.8-0.3,1.8h11.2
		C61.5,40,60.9,38.8,60.1,37.9z M60.1,37.9c-0.8-0.9-2.2-1.5-3.9-1.5c-1.1,0-2,0.2-2.7,0.6c-0.7,0.4-1.3,0.9-1.7,1.4
		c-0.5,0.6-0.8,1.2-0.9,1.8c-0.2,0.6-0.3,0.8-0.3,1.8h11.2C61.5,40,60.9,38.8,60.1,37.9z M60.1,37.9c-0.8-0.9-2.2-1.5-3.9-1.5
		c-1.1,0-2,0.2-2.7,0.6c-0.7,0.4-1.3,0.9-1.7,1.4c-0.5,0.6-0.8,1.2-0.9,1.8c-0.2,0.6-0.3,0.8-0.3,1.8h11.2
		C61.5,40,60.9,38.8,60.1,37.9z M60.1,37.9c-0.8-0.9-2.2-1.5-3.9-1.5c-1.1,0-2,0.2-2.7,0.6c-0.7,0.4-1.3,0.9-1.7,1.4
		c-0.5,0.6-0.8,1.2-0.9,1.8c-0.2,0.6-0.3,0.8-0.3,1.8h11.2C61.5,40,60.9,38.8,60.1,37.9z M60.1,37.9c-0.8-0.9-2.2-1.5-3.9-1.5
		c-1.1,0-2,0.2-2.7,0.6c-0.7,0.4-1.3,0.9-1.7,1.4c-0.5,0.6-0.8,1.2-0.9,1.8c-0.2,0.6-0.3,0.8-0.3,1.8h11.2
		C61.5,40,60.9,38.8,60.1,37.9z M60.1,37.9c-0.8-0.9-2.2-1.5-3.9-1.5c-1.1,0-2,0.2-2.7,0.6c-0.7,0.4-1.3,0.9-1.7,1.4
		c-0.5,0.6-0.8,1.2-0.9,1.8c-0.2,0.6-0.3,0.8-0.3,1.8h11.2C61.5,40,60.9,38.8,60.1,37.9z M60.1,37.9c-0.8-0.9-2.2-1.5-3.9-1.5
		c-1.1,0-2,0.2-2.7,0.6c-0.7,0.4-1.3,0.9-1.7,1.4c-0.5,0.6-0.8,1.2-0.9,1.8c-0.2,0.6-0.3,0.8-0.3,1.8h11.2
		C61.5,40,60.9,38.8,60.1,37.9z M60.1,37.9c-0.8-0.9-2.2-1.5-3.9-1.5c-1.1,0-2,0.2-2.7,0.6c-0.7,0.4-1.3,0.9-1.7,1.4
		c-0.5,0.6-0.8,1.2-0.9,1.8c-0.2,0.6-0.3,0.8-0.3,1.8h11.2C61.5,40,60.9,38.8,60.1,37.9z M60.1,37.9c-0.8-0.9-2.2-1.5-3.9-1.5
		c-1.1,0-2,0.2-2.7,0.6c-0.7,0.4-1.3,0.9-1.7,1.4c-0.5,0.6-0.8,1.2-0.9,1.8c-0.2,0.6-0.3,0.8-0.3,1.8h11.2
		C61.5,40,60.9,38.8,60.1,37.9z M60.1,37.9c-0.8-0.9-2.2-1.5-3.9-1.5c-1.1,0-2,0.2-2.7,0.6c-0.7,0.4-1.3,0.9-1.7,1.4
		c-0.5,0.6-0.8,1.2-0.9,1.8c-0.2,0.6-0.3,0.8-0.3,1.8h11.2C61.5,40,60.9,38.8,60.1,37.9z M40,0C17.9,0,0,17.9,0,40
		c0,22.1,17.9,40,40,40s40-17.9,40-40C80,17.9,62.1,0,40,0z M49,25h14v3H49V25z M40.3,51.5c-0.7,1.3-1.6,2.3-2.7,3.1
		s-2.5,1.4-3.9,1.8c-1.5,0.4-3,0.6-4.5,0.6H12V22h16.6c1.6,0,3.1,0.3,4.5,0.6c1.4,0.3,2.5,0.9,3.5,1.5c1,0.7,1.7,1.6,2.3,2.7
		c0.5,1.1,0.8,2.5,0.8,4.1c0,1.7-0.4,3.2-1.2,4.4c-0.8,1.2-2,2.1-3.5,2.9c2.1,0.6,3.7,1.7,4.8,3.2c1.1,1.5,1.6,3.4,1.6,5.5
		C41.3,48.7,41,50.2,40.3,51.5z M50.5,46c0,2,0.7,3.9,1.7,4.9c1,1,2.5,1.5,4.4,1.5c1.4,0,2.6-0.4,3.6-1.1c1-0.7,1.6-1.3,1.8-2.3h6.1
		c-1,3-2.5,5.3-4.5,6.6c-2,1.3-4.4,2.1-7.3,2.1c-2,0-3.8-0.3-5.3-1c-1.6-0.6-2.9-1.5-4-2.7c-1.1-1.2-1.9-2.5-2.5-4.2
		c-0.6-1.6-0.9-3.4-0.9-5.3c0-1.9,0.3-3.6,0.9-5.2c0.6-1.6,1.5-3,2.6-4.2c1.1-1.2,2.5-2.1,4.1-2.8c1.6-0.7,3.3-1,5.2-1
		c2.1,0,4,0.4,5.6,1.2c1.6,0.8,2.9,1.9,3.9,3.3c1,1.4,1.7,3,2.2,4.7c0.5,1.8,0.6,3.5,0.5,5.5H50.5z M56.2,36.4c-1.1,0-2,0.2-2.7,0.6
		c-0.7,0.4-1.3,0.9-1.7,1.4c-0.5,0.6-0.8,1.2-0.9,1.8c-0.2,0.6-0.3,0.8-0.3,1.8h11.2c-0.2-2-0.8-3.2-1.6-4.1
		C59.2,37,57.9,36.4,56.2,36.4z M60.1,37.9c-0.8-0.9-2.2-1.5-3.9-1.5c-1.1,0-2,0.2-2.7,0.6c-0.7,0.4-1.3,0.9-1.7,1.4
		c-0.5,0.6-0.8,1.2-0.9,1.8c-0.2,0.6-0.3,0.8-0.3,1.8h11.2C61.5,40,60.9,38.8,60.1,37.9z M60.1,37.9c-0.8-0.9-2.2-1.5-3.9-1.5
		c-1.1,0-2,0.2-2.7,0.6c-0.7,0.4-1.3,0.9-1.7,1.4c-0.5,0.6-0.8,1.2-0.9,1.8c-0.2,0.6-0.3,0.8-0.3,1.8h11.2
		C61.5,40,60.9,38.8,60.1,37.9z M60.1,37.9c-0.8-0.9-2.2-1.5-3.9-1.5c-1.1,0-2,0.2-2.7,0.6c-0.7,0.4-1.3,0.9-1.7,1.4
		c-0.5,0.6-0.8,1.2-0.9,1.8c-0.2,0.6-0.3,0.8-0.3,1.8h11.2C61.5,40,60.9,38.8,60.1,37.9z M60.1,37.9c-0.8-0.9-2.2-1.5-3.9-1.5
		c-1.1,0-2,0.2-2.7,0.6c-0.7,0.4-1.3,0.9-1.7,1.4c-0.5,0.6-0.8,1.2-0.9,1.8c-0.2,0.6-0.3,0.8-0.3,1.8h11.2
		C61.5,40,60.9,38.8,60.1,37.9z M60.1,37.9c-0.8-0.9-2.2-1.5-3.9-1.5c-1.1,0-2,0.2-2.7,0.6c-0.7,0.4-1.3,0.9-1.7,1.4
		c-0.5,0.6-0.8,1.2-0.9,1.8c-0.2,0.6-0.3,0.8-0.3,1.8h11.2C61.5,40,60.9,38.8,60.1,37.9z M60.1,37.9c-0.8-0.9-2.2-1.5-3.9-1.5
		c-1.1,0-2,0.2-2.7,0.6c-0.7,0.4-1.3,0.9-1.7,1.4c-0.5,0.6-0.8,1.2-0.9,1.8c-0.2,0.6-0.3,0.8-0.3,1.8h11.2
		C61.5,40,60.9,38.8,60.1,37.9z M60.1,37.9c-0.8-0.9-2.2-1.5-3.9-1.5c-1.1,0-2,0.2-2.7,0.6c-0.7,0.4-1.3,0.9-1.7,1.4
		c-0.5,0.6-0.8,1.2-0.9,1.8c-0.2,0.6-0.3,0.8-0.3,1.8h11.2C61.5,40,60.9,38.8,60.1,37.9z M60.1,37.9c-0.8-0.9-2.2-1.5-3.9-1.5
		c-1.1,0-2,0.2-2.7,0.6c-0.7,0.4-1.3,0.9-1.7,1.4c-0.5,0.6-0.8,1.2-0.9,1.8c-0.2,0.6-0.3,0.8-0.3,1.8h11.2
		C61.5,40,60.9,38.8,60.1,37.9z M60.1,37.9c-0.8-0.9-2.2-1.5-3.9-1.5c-1.1,0-2,0.2-2.7,0.6c-0.7,0.4-1.3,0.9-1.7,1.4
		c-0.5,0.6-0.8,1.2-0.9,1.8c-0.2,0.6-0.3,0.8-0.3,1.8h11.2C61.5,40,60.9,38.8,60.1,37.9z M60.1,37.9c-0.8-0.9-2.2-1.5-3.9-1.5
		c-1.1,0-2,0.2-2.7,0.6c-0.7,0.4-1.3,0.9-1.7,1.4c-0.5,0.6-0.8,1.2-0.9,1.8c-0.2,0.6-0.3,0.8-0.3,1.8h11.2
		C61.5,40,60.9,38.8,60.1,37.9z M60.1,37.9c-0.8-0.9-2.2-1.5-3.9-1.5c-1.1,0-2,0.2-2.7,0.6c-0.7,0.4-1.3,0.9-1.7,1.4
		c-0.5,0.6-0.8,1.2-0.9,1.8c-0.2,0.6-0.3,0.8-0.3,1.8h11.2C61.5,40,60.9,38.8,60.1,37.9z M60.1,37.9c-0.8-0.9-2.2-1.5-3.9-1.5
		c-1.1,0-2,0.2-2.7,0.6c-0.7,0.4-1.3,0.9-1.7,1.4c-0.5,0.6-0.8,1.2-0.9,1.8c-0.2,0.6-0.3,0.8-0.3,1.8h11.2
		C61.5,40,60.9,38.8,60.1,37.9z M60.1,37.9c-0.8-0.9-2.2-1.5-3.9-1.5c-1.1,0-2,0.2-2.7,0.6c-0.7,0.4-1.3,0.9-1.7,1.4
		c-0.5,0.6-0.8,1.2-0.9,1.8c-0.2,0.6-0.3,0.8-0.3,1.8h11.2C61.5,40,60.9,38.8,60.1,37.9z M60.1,37.9c-0.8-0.9-2.2-1.5-3.9-1.5
		c-1.1,0-2,0.2-2.7,0.6c-0.7,0.4-1.3,0.9-1.7,1.4c-0.5,0.6-0.8,1.2-0.9,1.8c-0.2,0.6-0.3,0.8-0.3,1.8h11.2
		C61.5,40,60.9,38.8,60.1,37.9z M60.1,37.9c-0.8-0.9-2.2-1.5-3.9-1.5c-1.1,0-2,0.2-2.7,0.6c-0.7,0.4-1.3,0.9-1.7,1.4
		c-0.5,0.6-0.8,1.2-0.9,1.8c-0.2,0.6-0.3,0.8-0.3,1.8h11.2C61.5,40,60.9,38.8,60.1,37.9z M60.1,37.9c-0.8-0.9-2.2-1.5-3.9-1.5
		c-1.1,0-2,0.2-2.7,0.6c-0.7,0.4-1.3,0.9-1.7,1.4c-0.5,0.6-0.8,1.2-0.9,1.8c-0.2,0.6-0.3,0.8-0.3,1.8h11.2
		C61.5,40,60.9,38.8,60.1,37.9z"/>
</g>
<g id="Layer_2" class="st1">
	<circle class="st2" cx="40" cy="40" r="31.3"/>
</g>
</svg>
