<?xml version="1.0" encoding="utf-8"?>
<!-- Generator: Adobe Illustrator 19.0.1, SVG Export Plug-In . SVG Version: 6.00 Build 0)  -->
<svg version="1.1" xmlns="http://www.w3.org/2000/svg" xmlns:xlink="http://www.w3.org/1999/xlink" x="0px" y="0px"
	 viewBox="0 0 80 80" style="enable-background:new 0 0 80 80;" xml:space="preserve">
<style type="text/css">
	.st0{fill:#67308F;}
	.st1{display:none;}
	.st2{display:inline;fill:none;stroke:#FCEE21;stroke-miterlimit:10;}
</style>
<g id="Layer_1">
	<path class="st0" d="M40,0C17.9,0,0,17.9,0,40c0,22.1,17.9,40,40,40s40-17.9,40-40C80,17.9,62.1,0,40,0z M61.1,29.2
		c0,0.5,0,0.9,0,1.4c0,14.4-11,31-31,31c-6.2,0-11.9-1.8-16.7-4.9c0.8,0.1,1.7,0.1,2.6,0.1c5.1,0,9.8-1.7,13.5-4.7
		c-4.8-0.1-8.8-3.2-10.2-7.6c0.7,0.1,1.3,0.2,2,0.2c1,0,2.2-0.1,3.1-0.4c-5-1-8.5-5.4-8.5-10.7v-0.1c1,0.8,2.9,1.3,4.7,1.4
		c-2.9-1.9-4.9-5.3-4.9-9.1c0-2,0.5-3.9,1.4-5.5c5.4,6.6,13.4,10.9,22.4,11.4c-0.2-0.8-0.3-1.6-0.3-2.5c0-6,4.9-10.9,10.9-10.9
		c3.1,0,6,1.3,7.9,3.4c2.5-0.5,4.8-1.4,6.9-2.7c-0.8,2.6-2.5,4.7-4.8,6c2.2-0.3,4.3-0.8,6.3-1.7C65.1,25.7,63.2,27.6,61.1,29.2z"/>
</g>
<g id="Layer_2" class="st1">
	<circle class="st2" cx="40" cy="40" r="31.3"/>
</g>
</svg>
