<?xml version="1.0" encoding="utf-8"?>
<!-- Generator: Adobe Illustrator 16.0.0, SVG Export Plug-In . SVG Version: 6.00 Build 0)  -->
<!DOCTYPE svg PUBLIC "-//W3C//DTD SVG 1.1//EN" "http://www.w3.org/Graphics/SVG/1.1/DTD/svg11.dtd">
<svg version="1.1" id="Layer_1" xmlns="http://www.w3.org/2000/svg" xmlns:xlink="http://www.w3.org/1999/xlink" x="0px" y="0px"
	 width="700px" height="332.891px" viewBox="0 0 700 332.891" enable-background="new 0 0 700 332.891" xml:space="preserve">
<polygon opacity="0.15" fill="#67308F" points="-67.303,-206.753 552.099,-189.916 699.803,211.737 113.533,332.286 "/>
<g>
	<path fill="#444444" d="M427.637,195.584c-1.422,6.734-3.704,9.728-9.69,9.728c-3.929,0-7.371-1.646-7.445-6.248h2.356
		c0.038,3.293,2.657,4.266,5.426,4.266c5.986,0,6.734-6.323,7.558-9.616l-0.075-0.074c-1.31,2.245-3.966,3.555-6.585,3.555
		c-4.677,0-7.146-3.405-7.146-7.857c0-5.688,3.704-11.599,9.877-11.599c2.918,0,5.8,1.497,6.323,4.527h0.074l0.823-3.966h2.171
		L427.637,195.584z M419.593,195.21c4.789,0,7.707-5.238,7.707-9.578c0-3.442-1.459-5.911-5.275-5.911
		c-4.826,0-7.633,5.125-7.633,9.428C414.392,192.404,416.001,195.21,419.593,195.21z"/>
	<path fill="#444444" d="M435.792,178.299h2.133l-0.973,4.452h0.075c1.496-2.769,3.554-4.752,6.996-4.714
		c0.411,0,0.86,0,1.272,0.037l-0.524,2.357c-0.449,0-0.897-0.038-1.347-0.038c-4.228,0.075-6.473,3.479-7.259,7.109l-2.17,10.102
		h-2.356L435.792,178.299z"/>
	<path fill="#444444" d="M446.154,184.061c0.637-4.378,4.004-6.323,8.156-6.323c2.619,0,6.697,0.898,6.697,4.303
		c0,1.871-0.822,4.789-1.197,6.51c-0.86,4.341-1.271,5.351-1.271,6.511c0,0.673,0.673,0.785,1.234,0.785
		c0.337,0,0.599-0.037,0.936-0.074l-0.337,1.87c-0.523,0.112-1.31,0.188-1.945,0.188c-1.31,0-2.021-0.823-2.058-2.096
		c0-0.336,0.037-0.711,0.074-1.047l-0.074-0.075c-1.348,2.245-4.004,3.555-6.697,3.555c-3.518,0-6.174-1.571-6.174-5.351
		c0-4.078,3.255-5.388,6.697-5.986c2.47-0.374,4.64-0.188,6.136-0.562c1.534-0.374,2.32-1.234,2.32-3.778
		c0-2.282-2.282-2.769-4.078-2.769c-2.993,0-5.575,1.122-6.062,4.34H446.154z M457.828,187.278l-0.075-0.075
		c-0.748,0.936-3.067,1.011-4.265,1.085c-2.881,0.225-7.633,0.374-7.633,4.415c0,2.47,2.058,3.479,4.303,3.479
		c3.778,0,6.173-2.282,6.922-5.649L457.828,187.278z"/>
	<path fill="#444444" d="M467.216,178.299h2.133l-0.748,3.479h0.074c1.646-2.544,3.63-4.041,7.034-4.041
		c4.938,0,7.333,3.181,7.333,7.895c0,5.911-4.078,12.534-10.551,12.534c-3.03,0-5.649-1.272-6.173-4.415h-0.075l-2.357,11h-2.356
		L467.216,178.299z M467.067,190.608c0,3.367,1.945,5.574,5.388,5.574c5.425,0,8.231-5.986,8.231-10.7
		c0-3.293-1.646-5.762-5.201-5.762C470.06,179.721,467.067,185.819,467.067,190.608z"/>
	<path fill="#444444" d="M490.075,170.891h2.356l-2.356,10.925h0.074c1.348-2.282,3.892-4.078,6.772-4.078
		c3.367,0,5.837,1.497,5.837,5.2c0,0.6-0.112,1.385-0.3,2.283l-2.656,12.384h-2.357l2.694-12.459
		c0.149-0.599,0.262-1.31,0.262-1.945c0-2.545-1.945-3.479-4.041-3.479c-3.404,0-6.51,3.067-7.558,7.969l-2.133,9.915h-2.356
		L490.075,170.891z"/>
	<path fill="#444444" d="M508.555,178.299h2.357l-4.153,19.306h-2.356L508.555,178.299z M510.165,170.891h2.356l-0.822,3.778h-2.357
		L510.165,170.891z"/>
	<path fill="#444444" d="M527.599,184.322c0.187-2.881-1.871-4.602-4.64-4.602c-5.649,0-8.344,5.462-8.344,10.476
		c0,3.442,1.721,5.986,5.388,5.986c3.105,0,5.351-2.021,6.36-4.826h2.357c-1.422,4.415-4.34,6.81-9.017,6.81
		c-4.789,0-7.446-3.218-7.446-7.97c0-6.023,3.854-12.459,10.477-12.459c4.19,0,7.37,2.096,7.221,6.585H527.599z"/>
	<path fill="#444444" d="M557.939,197.604h-2.282l0.86-3.479h-0.075c-1.646,2.544-3.629,4.041-7.033,4.041
		c-4.939,0-7.334-3.181-7.334-7.895c0-5.912,4.078-12.534,10.552-12.534c3.03,0,5.425,1.16,6.285,4.19h0.075l2.319-11.037h2.357
		L557.939,197.604z M558.051,185.295c0-3.367-1.945-5.574-5.388-5.574c-5.426,0-8.231,5.986-8.231,10.7
		c0,3.292,1.646,5.762,5.2,5.762C555.058,196.183,558.051,190.084,558.051,185.295z"/>
	<path fill="#444444" d="M566.018,188.588c-0.075,0.448-0.112,0.973-0.112,1.496c0,3.479,1.796,6.099,5.612,6.099
		c3.068,0,5.425-1.982,6.323-4.789h2.356c-1.271,4.303-4.228,6.772-8.792,6.772c-5.088,0-7.857-3.181-7.857-8.194
		c0-6.099,3.816-12.234,10.439-12.234c4.639,0,7.333,3.03,7.333,7.521c0,1.085-0.038,2.17-0.188,3.33H566.018z M578.926,186.604
		c0-0.523,0.037-1.01,0.037-1.496c0-3.218-2.021-5.388-5.275-5.388c-3.891,0-6.548,3.292-7.37,6.884H578.926z"/>
	<path fill="#444444" d="M584.76,191.318c-0.037,3.742,2.731,4.864,5.463,4.864c2.095,0,4.864-1.085,4.864-3.555
		c0-2.507-2.657-3.292-5.201-4.265c-2.581-1.011-5.163-2.17-5.163-5.351c0-3.741,4.041-5.275,7.146-5.275
		c4.04,0,6.959,1.759,6.884,6.211h-2.356c0.187-2.956-1.871-4.228-4.527-4.228c-2.058,0-4.789,0.636-4.789,3.292
		c0,1.796,1.908,2.694,4.078,3.555c2.656,1.048,6.285,2.133,6.285,5.687c0,4.341-4.115,5.912-7.782,5.912
		c-3.704,0-7.482-2.021-7.258-6.848H584.76z"/>
	<path fill="#444444" d="M604.176,178.299h2.357l-4.153,19.306h-2.356L604.176,178.299z M605.786,170.891h2.356l-0.822,3.778h-2.357
		L605.786,170.891z"/>
	<path fill="#444444" d="M623.744,195.584c-1.422,6.734-3.704,9.728-9.69,9.728c-3.929,0-7.371-1.646-7.445-6.248h2.356
		c0.038,3.293,2.657,4.266,5.426,4.266c5.986,0,6.734-6.323,7.558-9.616l-0.075-0.074c-1.31,2.245-3.966,3.555-6.585,3.555
		c-4.677,0-7.146-3.405-7.146-7.857c0-5.688,3.703-11.599,9.877-11.599c2.918,0,5.799,1.497,6.323,4.527h0.075l0.822-3.966h2.17
		L623.744,195.584z M615.7,195.21c4.789,0,7.707-5.238,7.707-9.578c0-3.442-1.459-5.911-5.275-5.911
		c-4.826,0-7.633,5.125-7.633,9.428C610.499,192.404,612.108,195.21,615.7,195.21z"/>
	<path fill="#444444" d="M631.898,178.299h2.17l-0.673,3.517h0.074c1.46-2.282,4.004-4.078,6.885-4.078
		c3.367,0,5.837,1.497,5.837,5.2c0,0.6-0.112,1.385-0.3,2.283l-2.656,12.384h-2.357l2.694-12.459
		c0.149-0.599,0.262-1.31,0.262-1.945c0-2.545-1.945-3.479-4.041-3.479c-3.404,0-6.51,3.067-7.558,7.969l-2.133,9.915h-2.356
		L631.898,178.299z"/>
	<path fill="#444444" d="M651.239,188.588c-0.075,0.448-0.112,0.973-0.112,1.496c0,3.479,1.796,6.099,5.612,6.099
		c3.068,0,5.425-1.982,6.323-4.789h2.356c-1.271,4.303-4.228,6.772-8.792,6.772c-5.088,0-7.857-3.181-7.857-8.194
		c0-6.099,3.816-12.234,10.439-12.234c4.639,0,7.333,3.03,7.333,7.521c0,1.085-0.038,2.17-0.188,3.33H651.239z M664.147,186.604
		c0-0.523,0.037-1.01,0.037-1.496c0-3.218-2.021-5.388-5.275-5.388c-3.891,0-6.548,3.292-7.37,6.884H664.147z"/>
	<path fill="#444444" d="M671.403,178.299h2.133l-0.973,4.452h0.075c1.496-2.769,3.554-4.752,6.996-4.714
		c0.411,0,0.86,0,1.272,0.037l-0.524,2.357c-0.449,0-0.897-0.038-1.347-0.038c-4.228,0.075-6.473,3.479-7.259,7.109l-2.17,10.102
		h-2.356L671.403,178.299z"/>
</g>
<g>
	<path fill="#444444" d="M11.371,96.412c0-27.262,20.058-48.308,47.037-48.308c26.555,0,46.471,21.188,46.471,48.025
		c0,27.261-20.058,48.308-47.037,48.308C31.287,144.438,11.371,123.25,11.371,96.412z M96.686,96.412
		c0-22.883-15.82-40.963-38.562-40.963S19.563,73.388,19.563,96.13c0,22.882,15.82,40.962,38.562,40.962
		S96.686,119.153,96.686,96.412z"/>
	<path fill="#444444" d="M117.027,136.245h10.453v-90.4h-10.453v-6.498h17.656v96.898h10.594v6.497h-28.25V136.245z"/>
	<path fill="#444444" d="M157.001,136.245h10.452V89.914h-10.452v-6.497h17.656v52.828h10.594v6.497h-28.25V136.245z
		 M163.216,58.557c0-3.672,2.966-6.78,6.639-6.78c3.531,0,6.498,3.108,6.498,6.78c0,3.673-2.966,6.78-6.498,6.78
		C166.183,65.337,163.216,62.229,163.216,58.557z"/>
	<path fill="#444444" d="M196.693,89.914H188.5v-6.497h26.273v6.497h-9.888l19.069,43.082l19.069-43.082h-10.312v-6.497h26.273
		v6.497h-8.193l-25.708,55.229H222.4L196.693,89.914z"/>
	<path fill="#444444" d="M266.895,136.245h10.452V89.914h-10.452v-6.497h17.656v52.828h10.594v6.497h-28.25V136.245z M273.11,58.557
		c0-3.672,2.966-6.78,6.639-6.78c3.531,0,6.498,3.108,6.498,6.78c0,3.673-2.966,6.78-6.498,6.78
		C276.076,65.337,273.11,62.229,273.11,58.557z"/>
	<path fill="#444444" d="M305.597,126.64c0-10.735,9.605-17.938,22.459-17.938c6.497,0,15.255,2.118,18.08,3.39v-9.888
		c0-3.39-0.989-6.356-2.825-8.475c-2.684-2.967-7.204-4.944-13.56-4.944c-5.65,0-8.475,1.554-10.735,3.107
		c0.565,1.13,0.988,2.261,0.988,3.814c0,2.966-2.119,5.367-5.367,5.367c-3.39,0-5.509-2.543-5.509-5.65
		c0-6.639,8.051-13.136,21.47-13.136c8.051,0,14.266,2.401,18.08,6.497c2.966,3.107,4.378,7.204,4.378,11.724v35.737h9.888v6.497
		h-16.526v-8.052c-4.944,5.086-12.854,9.182-20.905,9.182C313.507,143.872,305.597,136.527,305.597,126.64z M346.136,127.77v-10.028
		c-4.803-1.554-11.441-2.967-17.798-2.967c-10.453,0-15.538,5.085-15.538,11.441s4.803,11.3,14.125,11.3
		C334.977,137.516,341.616,132.996,346.136,127.77z"/>
	<path fill="#444444" d="M408.143,96.977c0-29.098,22.318-48.872,46.472-48.872c18.646,0,34.183,12.006,34.183,23.165
		c0,4.52-3.107,8.051-7.345,8.051c-3.531,0-6.356-2.824-6.356-6.355c0-3.108,2.26-5.509,4.661-6.074
		c-2.542-4.803-11.724-11.583-25.143-11.583c-22.6,0-38.278,19.917-38.278,41.528c0,20.481,15.961,40.397,38.844,40.397
		c11.3,0,20.764-3.955,29.662-11.865l4.379,5.791c-9.464,9.04-22.176,13.278-34.041,13.278
		C426.506,144.438,408.143,120.849,408.143,96.977z"/>
	<path fill="#444444" d="M544.875,89.067c0,3.248-2.543,6.073-5.792,6.073c-3.107,0-5.509-2.26-6.355-4.803
		c-4.662,1.271-10.171,6.922-13.278,13.137v32.771h11.583v6.497h-28.674v-6.497h9.888V89.914h-9.888v-6.497h16.809v13.419
		c4.237-8.192,11.865-14.549,17.656-14.549C542.05,82.287,544.875,85.536,544.875,89.067z"/>
	<path fill="#444444" d="M562.955,135.962c-1.836-3.39-2.684-7.486-2.684-12.288v-33.76h-9.888v-6.497h17.092v39.268
		c0,3.673,0.706,6.639,1.836,8.898c1.978,3.814,5.509,5.509,10.876,5.509c8.476,0,15.538-5.649,21.471-12.147v-35.03h-9.888v-6.497
		h17.091v52.828h9.888v6.497H601.94v-11.724c-5.509,7.062-14.549,12.854-22.883,12.854
		C570.865,143.872,565.78,140.906,562.955,135.962z"/>
	<path fill="#444444" d="M626.943,140.482l39.126-50.851h-29.945v11.865h-6.639v-18.08h48.449v2.26l-39.127,50.851h33.053v-11.865
		h6.639v18.08h-51.556V140.482z"/>
</g>
</svg>
