<?xml version="1.0" encoding="utf-8"?>
<!-- Generator: Adobe Illustrator 16.0.0, SVG Export Plug-In . SVG Version: 6.00 Build 0)  -->
<!DOCTYPE svg PUBLIC "-//W3C//DTD SVG 1.1//EN" "http://www.w3.org/Graphics/SVG/1.1/DTD/svg11.dtd">
<svg version="1.1" xmlns="http://www.w3.org/2000/svg" xmlns:xlink="http://www.w3.org/1999/xlink" x="0px" y="0px" width="80px"
	 height="80px" viewBox="0 0 80 80" enable-background="new 0 0 80 80" xml:space="preserve">
<g id="Layer_1">
	<path fill="#FFFFFF" d="M40,0C17.91,0,0,17.91,0,40s17.91,40,40,40s40-17.91,40-40S62.09,0,40,0z M61.12,29.17
		c0.02,0.47,0.03,0.94,0.03,1.41c0,14.4-10.96,31-31,31c-6.16,0-11.89-1.8-16.71-4.89c0.85,0.1,1.72,0.149,2.6,0.149
		c5.11,0,9.81-1.74,13.54-4.67c-4.77-0.08-8.8-3.229-10.18-7.56c0.66,0.12,1.34,0.189,2.05,0.189c0.99,0,2.16-0.13,3.08-0.38
		c-4.99-1-8.53-5.41-8.53-10.69V33.6c1,0.81,2.94,1.3,4.72,1.36c-2.92-1.95-4.95-5.29-4.95-9.07c0-2,0.48-3.87,1.42-5.48
		C22.56,27,30.57,31.34,39.63,31.8c-0.18-0.8-0.3-1.63-0.3-2.49c0-6.01,4.88-10.89,10.9-10.89c3.13,0,5.95,1.32,7.94,3.44
		c2.48-0.49,4.82-1.4,6.92-2.65c-0.81,2.55-2.54,4.68-4.79,6.03c2.2-0.26,4.3-0.85,6.26-1.71C65.1,25.71,63.25,27.63,61.12,29.17z"
		/>
</g>
<g id="Layer_2" display="none">
	<circle display="inline" fill="none" stroke="#FCEE21" stroke-miterlimit="10" cx="40" cy="40" r="31.263"/>
</g>
</svg>
