<?xml version="1.0" encoding="utf-8"?>
<!-- Generator: Adobe Illustrator 16.0.0, SVG Export Plug-In . SVG Version: 6.00 Build 0)  -->
<!DOCTYPE svg PUBLIC "-//W3C//DTD SVG 1.1//EN" "http://www.w3.org/Graphics/SVG/1.1/DTD/svg11.dtd">
<svg version="1.1" xmlns="http://www.w3.org/2000/svg" xmlns:xlink="http://www.w3.org/1999/xlink" x="0px" y="0px" width="80px"
	 height="80px" viewBox="0 0 80 80" enable-background="new 0 0 80 80" xml:space="preserve">
<g id="Layer_1">
	<path fill="#FFFFFF" d="M40,0C17.91,0,0,17.91,0,40s17.91,40,40,40s40-17.91,40-40S62.09,0,40,0z M28,63H18V32h10V63z M22.97,28.16
		c-3.029,0-5.489-2.46-5.489-5.49c0-3.03,2.46-5.5,5.489-5.5c3.03,0,5.5,2.47,5.5,5.5C28.47,25.7,26,28.16,22.97,28.16z M63,63h-9
		V48c0-3.54-0.27-8.09-5.12-8.09c-4.93,0-5.88,3.85-5.88,7.83V63h-9V32h9v4.73c1.32-2.86,4.26-4.91,8.73-4.91
		C61.32,31.82,63,37.89,63,46.1V63z"/>
</g>
<g id="Layer_2" display="none">
	<circle display="inline" fill="none" stroke="#FCEE21" stroke-miterlimit="10" cx="40" cy="40" r="31.264"/>
</g>
</svg>
