<?xml version="1.0" encoding="utf-8"?>
<!-- Generator: Adobe Illustrator 16.0.0, SVG Export Plug-In . SVG Version: 6.00 Build 0)  -->
<!DOCTYPE svg PUBLIC "-//W3C//DTD SVG 1.1//EN" "http://www.w3.org/Graphics/SVG/1.1/DTD/svg11.dtd">
<svg version="1.1" xmlns="http://www.w3.org/2000/svg" xmlns:xlink="http://www.w3.org/1999/xlink" x="0px" y="0px" width="80px"
	 height="80px" viewBox="0 0 80 80" enable-background="new 0 0 80 80" xml:space="preserve">
<g id="Layer_1">
	<path fill="#FFFFFF" d="M57.51,61.9c0.21,0.56,0.08,0.89-0.37,1.21c-1.399,0.97-2.97,1.5-4.6,1.909
		c-3.39,0.86-6.771,0.79-10.11-0.21c-5.229-1.56-8.85-6.02-9.34-11.46c-0.09-1.01-0.11-2.02-0.11-3.04C32.96,45.6,33,40.89,33,36.18
		V35h-6.28c0-2-0.01-4.86,0.02-7.27c0-0.2,0.23-0.46,0.43-0.52c6.11-2.44,9.1-7.02,10.04-13.31c0.15-1.05,0.13-0.9,1.21-0.9H45v13
		h11v9H45.54c-0.021,0-0.04,0.62-0.04,0.87c0,4.88-0.01,9.81,0.01,14.689c0,0.53,0.05,1.091,0.16,1.601
		c0.47,2.33,2.04,3.75,4.41,3.71c1.67-0.021,3.33-0.34,5.11-0.55c0,0.01,0.079,0.17,0.149,0.35C56.06,57.74,56.76,59.83,57.51,61.9z
		"/>
	<path fill="#FFFFFF" d="M40,0C17.91,0,0,17.91,0,40s17.91,40,40,40s40-17.91,40-40S62.09,0,40,0z M60.03,63.35
		c-0.511,1.07-1.44,1.75-2.44,2.32c-2.08,1.17-4.359,1.74-6.689,2.15c-5.431,0.939-10.86,0.779-16.081-1
		C28.1,64.53,24.12,58.9,24.09,51.8C24.08,47.34,24,42.89,24,38.43V38h-5.96c-0.02-1-0.05-0.77-0.05-1c0-3.65,0.01-7.54-0.01-11.19
		c0-0.5,0.12-0.75,0.64-0.93c5.79-1.91,8.96-6.12,10.01-12c0.31-1.74,1.36-2.88,3.12-2.88H48v14h10v13H48v13.39
		c0,2.24,0.02,2.261,2.22,2.261c1.721,0,3.431,0.02,5.16-0.021c0.521-0.02,0.75,0.17,0.94,0.63c1.25,3.05,2.529,6.07,3.77,9.12
		C60.2,62.65,60.16,63.07,60.03,63.35z"/>
</g>
<g id="Layer_2" display="none">
	<circle display="inline" fill="none" stroke="#FCEE21" stroke-miterlimit="10" cx="40" cy="40" r="31.263"/>
</g>
</svg>
