<?xml version="1.0" encoding="utf-8"?>
<!-- Generator: Adobe Illustrator 16.0.0, SVG Export Plug-In . SVG Version: 6.00 Build 0)  -->
<!DOCTYPE svg PUBLIC "-//W3C//DTD SVG 1.1//EN" "http://www.w3.org/Graphics/SVG/1.1/DTD/svg11.dtd">
<svg version="1.1" xmlns="http://www.w3.org/2000/svg" xmlns:xlink="http://www.w3.org/1999/xlink" x="0px" y="0px" width="80px"
	 height="80px" viewBox="0 0 80 80" enable-background="new 0 0 80 80" xml:space="preserve">
<g id="Layer_1">
	<path fill="#FFFFFF" d="M48.95,40c0,4.94-4.01,8.95-8.95,8.95c-4.94,0-8.95-4.01-8.95-8.95s4.01-8.95,8.95-8.95
		C44.94,31.05,48.95,35.06,48.95,40z"/>
	<path fill="#FFFFFF" d="M61.85,29.15c-0.119-2.62-0.55-4.04-0.92-4.98c-0.489-1.26-1.069-2.15-2.01-3.09
		c-0.939-0.94-1.83-1.52-3.09-2.01c-0.94-0.37-2.36-0.8-4.98-0.92c-2.83-0.13-3.68-0.16-10.85-0.16s-8.02,0.03-10.85,0.16
		c-2.62,0.12-4.04,0.55-4.98,0.92c-1.26,0.49-2.15,1.07-3.09,2.01s-1.52,1.83-2.01,3.09c-0.37,0.94-0.8,2.36-0.92,4.98
		c-0.13,2.83-0.16,3.68-0.16,10.85s0.03,8.02,0.16,10.85c0.12,2.62,0.55,4.04,0.92,4.98c0.49,1.26,1.07,2.15,2.01,3.09
		s1.83,1.52,3.09,2.01c0.94,0.37,2.36,0.8,4.98,0.92c2.83,0.13,3.68,0.16,10.85,0.16s8.02-0.03,10.85-0.16
		c2.62-0.12,4.04-0.55,4.98-0.92c1.26-0.49,2.15-1.07,3.09-2.01c0.94-0.94,1.521-1.83,2.01-3.09c0.37-0.94,0.801-2.36,0.92-4.98
		c0.131-2.83,0.16-3.68,0.16-10.85S61.98,31.98,61.85,29.15z M40,53.79c-7.61,0-13.79-6.18-13.79-13.79S32.39,26.21,40,26.21
		c7.62,0,13.79,6.18,13.79,13.79S47.62,53.79,40,53.79z M54.33,28.89c-1.78,0-3.22-1.44-3.22-3.22c0-1.78,1.439-3.22,3.22-3.22
		s3.22,1.44,3.22,3.22C57.55,27.45,56.11,28.89,54.33,28.89z"/>
	<path fill="#FFFFFF" d="M40,0C17.91,0,0,17.91,0,40s17.91,40,40,40s40-17.91,40-40S62.09,0,40,0z M66.69,51.07
		c-0.131,2.86-0.591,4.81-1.25,6.52c-0.69,1.76-1.61,3.26-3.101,4.75c-1.49,1.49-2.99,2.41-4.75,3.1c-1.71,0.66-3.66,1.12-6.52,1.25
		c-2.86,0.13-3.78,0.16-11.07,0.16s-8.21-0.03-11.07-0.16c-2.86-0.13-4.81-0.59-6.52-1.25c-1.76-0.69-3.26-1.61-4.75-3.1
		c-1.49-1.49-2.41-2.99-3.1-4.75c-0.66-1.71-1.12-3.66-1.25-6.52c-0.13-2.86-0.16-3.78-0.16-11.07s0.03-8.21,0.16-11.07
		c0.13-2.86,0.59-4.81,1.25-6.52c0.69-1.76,1.61-3.26,3.1-4.75c1.49-1.49,2.99-2.41,4.75-3.1c1.71-0.66,3.66-1.12,6.52-1.25
		c2.86-0.13,3.78-0.16,11.07-0.16s8.21,0.03,11.07,0.16c2.859,0.13,4.81,0.59,6.52,1.25c1.76,0.69,3.26,1.61,4.75,3.1
		c1.49,1.49,2.41,2.99,3.101,4.75c0.659,1.71,1.119,3.66,1.25,6.52c0.13,2.86,0.159,3.78,0.159,11.07S66.82,48.21,66.69,51.07z"/>
</g>
<g id="Layer_2" display="none">
	<circle display="inline" fill="none" stroke="#FCEE21" stroke-miterlimit="10" cx="40" cy="40" r="31.263"/>
</g>
</svg>
