<?xml version="1.0" encoding="utf-8"?>
<!-- Generator: Adobe Illustrator 16.0.0, SVG Export Plug-In . SVG Version: 6.00 Build 0)  -->
<!DOCTYPE svg PUBLIC "-//W3C//DTD SVG 1.1//EN" "http://www.w3.org/Graphics/SVG/1.1/DTD/svg11.dtd">
<svg version="1.1" xmlns="http://www.w3.org/2000/svg" xmlns:xlink="http://www.w3.org/1999/xlink" x="0px" y="0px" width="80px"
	 height="80px" viewBox="0 0 80 80" enable-background="new 0 0 80 80" xml:space="preserve">
<g id="Layer_1">
	<path fill="#FFFFFF" d="M32.31,32.22c0,1.45-0.43,2.35-1.3,2.99C30.12,35.85,29,36,27.65,36H20v-8h7.07c0.68,0,1.33,0.18,1.96,0.3
		c0.64,0.12,1.19,0.39,1.68,0.68c0.49,0.28,0.88,0.73,1.17,1.24C32.17,30.74,32.31,31.41,32.31,32.22z"/>
	<path fill="#FFFFFF" d="M33.7,46.62c0,0.91-0.15,1.61-0.46,2.19c-0.3,0.58-0.73,1.01-1.23,1.35c-0.52,0.35-1.12,0.52-1.8,0.68
		C29.54,50.98,28.83,51,28.08,51H20v-9h8.23c1.64,0,2.97,0.15,3.97,0.91C33.2,43.68,33.7,44.83,33.7,46.62z"/>
	<path fill="#FFFFFF" d="M60.06,37.93c-0.82-0.91-2.2-1.51-3.89-1.51c-1.1,0-2.01,0.21-2.74,0.58c-0.71,0.38-1.3,0.87-1.74,1.41
		c-0.45,0.56-0.75,1.2-0.93,1.83c-0.17,0.6-0.28,0.76-0.31,1.76h11.19C61.48,40,60.88,38.84,60.06,37.93z M60.06,37.93
		c-0.82-0.91-2.2-1.51-3.89-1.51c-1.1,0-2.01,0.21-2.74,0.58c-0.71,0.38-1.3,0.87-1.74,1.41c-0.45,0.56-0.75,1.2-0.93,1.83
		c-0.17,0.6-0.28,0.76-0.31,1.76h11.19C61.48,40,60.88,38.84,60.06,37.93z M60.06,37.93c-0.82-0.91-2.2-1.51-3.89-1.51
		c-1.1,0-2.01,0.21-2.74,0.58c-0.71,0.38-1.3,0.87-1.74,1.41c-0.45,0.56-0.75,1.2-0.93,1.83c-0.17,0.6-0.28,0.76-0.31,1.76h11.19
		C61.48,40,60.88,38.84,60.06,37.93z M60.06,37.93c-0.82-0.91-2.2-1.51-3.89-1.51c-1.1,0-2.01,0.21-2.74,0.58
		c-0.71,0.38-1.3,0.87-1.74,1.41c-0.45,0.56-0.75,1.2-0.93,1.83c-0.17,0.6-0.28,0.76-0.31,1.76h11.19
		C61.48,40,60.88,38.84,60.06,37.93z M60.06,37.93c-0.82-0.91-2.2-1.51-3.89-1.51c-1.1,0-2.01,0.21-2.74,0.58
		c-0.71,0.38-1.3,0.87-1.74,1.41c-0.45,0.56-0.75,1.2-0.93,1.83c-0.17,0.6-0.28,0.76-0.31,1.76h11.19
		C61.48,40,60.88,38.84,60.06,37.93z M60.06,37.93c-0.82-0.91-2.2-1.51-3.89-1.51c-1.1,0-2.01,0.21-2.74,0.58
		c-0.71,0.38-1.3,0.87-1.74,1.41c-0.45,0.56-0.75,1.2-0.93,1.83c-0.17,0.6-0.28,0.76-0.31,1.76h11.19
		C61.48,40,60.88,38.84,60.06,37.93z M60.06,37.93c-0.82-0.91-2.2-1.51-3.89-1.51c-1.1,0-2.01,0.21-2.74,0.58
		c-0.71,0.38-1.3,0.87-1.74,1.41c-0.45,0.56-0.75,1.2-0.93,1.83c-0.17,0.6-0.28,0.76-0.31,1.76h11.19
		C61.48,40,60.88,38.84,60.06,37.93z M60.06,37.93c-0.82-0.91-2.2-1.51-3.89-1.51c-1.1,0-2.01,0.21-2.74,0.58
		c-0.71,0.38-1.3,0.87-1.74,1.41c-0.45,0.56-0.75,1.2-0.93,1.83c-0.17,0.6-0.28,0.76-0.31,1.76h11.19
		C61.48,40,60.88,38.84,60.06,37.93z M40,0C17.91,0,0,17.91,0,40s17.91,40,40,40s40-17.91,40-40S62.09,0,40,0z M49,25h14v3H49V25z
		 M40.29,51.46c-0.68,1.29-1.6,2.33-2.74,3.14c-1.14,0.81-2.46,1.41-3.93,1.81C32.16,56.79,30.65,57,29.09,57H12V22h16.64
		c1.65,0,3.15,0.33,4.51,0.63c1.36,0.28,2.52,0.87,3.49,1.52c0.97,0.65,1.72,1.58,2.26,2.68c0.53,1.09,0.79,2.48,0.79,4.09
		c0,1.74-0.39,3.21-1.18,4.37c-0.8,1.16-1.97,2.12-3.53,2.85c2.13,0.62,3.71,1.7,4.75,3.24c1.05,1.54,1.57,3.38,1.57,5.55
		C41.3,48.68,40.96,50.19,40.29,51.46z M50.45,46c0,2,0.67,3.88,1.7,4.89c1.03,1,2.52,1.54,4.45,1.54c1.39,0,2.59-0.41,3.6-1.1
		c0.99-0.71,1.6-1.33,1.83-2.33h6.06c-0.97,3-2.45,5.27-4.46,6.56c-2,1.31-4.42,2.06-7.26,2.06c-1.97,0-3.75-0.32-5.34-0.95
		c-1.59-0.63-2.92-1.53-4.04-2.69c-1.1-1.17-1.94-2.55-2.55-4.18c-0.6-1.61-0.9-3.4-0.9-5.33c0-1.88,0.31-3.63,0.93-5.24
		c0.62-1.63,1.49-3.03,2.62-4.2c1.14-1.18,2.49-2.11,4.06-2.8c1.57-0.67,3.3-1.02,5.22-1.02c2.12,0,3.98,0.4,5.57,1.24
		c1.58,0.81,2.88,1.9,3.91,3.3c1.01,1.39,1.74,2.95,2.2,4.73c0.45,1.77,0.6,3.52,0.48,5.52H50.45z M56.17,36.42
		c-1.1,0-2.01,0.21-2.74,0.58c-0.71,0.38-1.3,0.87-1.74,1.41c-0.45,0.56-0.75,1.2-0.93,1.83c-0.17,0.6-0.28,0.76-0.31,1.76h11.19
		c-0.16-2-0.76-3.16-1.58-4.07C59.24,37.02,57.86,36.42,56.17,36.42z M60.06,37.93c-0.82-0.91-2.2-1.51-3.89-1.51
		c-1.1,0-2.01,0.21-2.74,0.58c-0.71,0.38-1.3,0.87-1.74,1.41c-0.45,0.56-0.75,1.2-0.93,1.83c-0.17,0.6-0.28,0.76-0.31,1.76h11.19
		C61.48,40,60.88,38.84,60.06,37.93z M60.06,37.93c-0.82-0.91-2.2-1.51-3.89-1.51c-1.1,0-2.01,0.21-2.74,0.58
		c-0.71,0.38-1.3,0.87-1.74,1.41c-0.45,0.56-0.75,1.2-0.93,1.83c-0.17,0.6-0.28,0.76-0.31,1.76h11.19
		C61.48,40,60.88,38.84,60.06,37.93z M60.06,37.93c-0.82-0.91-2.2-1.51-3.89-1.51c-1.1,0-2.01,0.21-2.74,0.58
		c-0.71,0.38-1.3,0.87-1.74,1.41c-0.45,0.56-0.75,1.2-0.93,1.83c-0.17,0.6-0.28,0.76-0.31,1.76h11.19
		C61.48,40,60.88,38.84,60.06,37.93z M60.06,37.93c-0.82-0.91-2.2-1.51-3.89-1.51c-1.1,0-2.01,0.21-2.74,0.58
		c-0.71,0.38-1.3,0.87-1.74,1.41c-0.45,0.56-0.75,1.2-0.93,1.83c-0.17,0.6-0.28,0.76-0.31,1.76h11.19
		C61.48,40,60.88,38.84,60.06,37.93z M60.06,37.93c-0.82-0.91-2.2-1.51-3.89-1.51c-1.1,0-2.01,0.21-2.74,0.58
		c-0.71,0.38-1.3,0.87-1.74,1.41c-0.45,0.56-0.75,1.2-0.93,1.83c-0.17,0.6-0.28,0.76-0.31,1.76h11.19
		C61.48,40,60.88,38.84,60.06,37.93z M60.06,37.93c-0.82-0.91-2.2-1.51-3.89-1.51c-1.1,0-2.01,0.21-2.74,0.58
		c-0.71,0.38-1.3,0.87-1.74,1.41c-0.45,0.56-0.75,1.2-0.93,1.83c-0.17,0.6-0.28,0.76-0.31,1.76h11.19
		C61.48,40,60.88,38.84,60.06,37.93z M60.06,37.93c-0.82-0.91-2.2-1.51-3.89-1.51c-1.1,0-2.01,0.21-2.74,0.58
		c-0.71,0.38-1.3,0.87-1.74,1.41c-0.45,0.56-0.75,1.2-0.93,1.83c-0.17,0.6-0.28,0.76-0.31,1.76h11.19
		C61.48,40,60.88,38.84,60.06,37.93z M60.06,37.93c-0.82-0.91-2.2-1.51-3.89-1.51c-1.1,0-2.01,0.21-2.74,0.58
		c-0.71,0.38-1.3,0.87-1.74,1.41c-0.45,0.56-0.75,1.2-0.93,1.83c-0.17,0.6-0.28,0.76-0.31,1.76h11.19
		C61.48,40,60.88,38.84,60.06,37.93z"/>
</g>
<g id="Layer_2" display="none">
	<circle display="inline" fill="none" stroke="#FCEE21" stroke-miterlimit="10" cx="40" cy="40" r="31.263"/>
</g>
</svg>
